<svg width="168" height="171" xmlns="http://www.w3.org/2000/svg" xmlns:xlink="http://www.w3.org/1999/xlink" xml:space="preserve" overflow="hidden"><defs><clipPath id="clip0"><path d="M718.826 515.522C728.041 521.364 735.093 529.012 738.265 539.619 740.642 547.538 740.797 556.117 738.721 564.114 737.984 566.967 736.907 570.18 735.055 572.509 732.959 575.149 729.846 576.255 726.79 574.741 720.689 571.723 720.621 549.945 720.621 549.945 721.387 557.379 721.833 569.85 722.289 578.274 722.318 578.836 721.872 579.302 721.3 579.283 700.591 578.768 678.281 579.108 657.571 579.302 657.028 579.302 656.582 578.856 656.582 578.312 656.592 567.87 657.348 555.331 658.57 545.112 658.58 545.015 657.494 549.906 657.465 549.994 656.446 553.788 655.214 560.562 652.314 561.804 649.19 563.134 639.636 554.089 637.696 550.508 636.425 548.159 637.075 546.005 637.968 543.724 640.761 536.64 644.214 529.836 647.406 522.927 650.199 516.89 653.391 509.815 652.304 502.993 651.926 500.625 660.714 508.059 662.964 509.107 670.259 512.513 678.998 511.63 686.826 511.63L705.47 511.63C710.194 511.63 714.82 512.969 718.807 515.502Z"/></clipPath><clipPath id="clip1"><path d="M722.192 561.232 658.202 561.232C657.387 561.232 656.737 560.533 656.795 559.718L657.484 550.003C657.532 549.266 658.153 548.693 658.89 548.693L721.271 548.693C721.998 548.693 722.609 549.246 722.677 549.974L723.589 559.689C723.667 560.514 723.017 561.232 722.183 561.232Z"/></clipPath></defs><g transform="translate(-604 -436)"><path d="M26.4324 79.3069 27.4606 95.5155C27.7613 100.307 28.9156 104.992 30.8556 109.357 31.457 110.715 32.1942 112.005 33.0284 113.237L33.6007 114.081 44.8138 109.648 43.3297 96.8735 26.413 79.2972Z" stroke="#231F20" stroke-width="1.23189" stroke-miterlimit="10" fill="#1F2D42" transform="matrix(1 0 0 1.00051 604.28 436)"/><path d="M66.9394 94.7686C66.5999 92.4503 65.4553 90.3163 64.1264 88.386 61.2261 84.1665 57.4723 80.6649 54.1549 76.7946 52.9036 75.3299 51.7299 73.5936 50.4107 72.0028 48.8005 70.0531 47.9372 67.6378 47.8208 65.1061 47.6171 60.9836 45.745 56.803 42.6119 54.1355 38.1014 50.2943 31.2242 49.5086 25.9571 52.2246 24.0753 53.1946 22.4069 54.572 20.9907 56.1434 17.7024 59.81 17.1592 65.1255 18.9537 69.6166 19.8558 71.8767 21.3302 73.9234 23.2314 75.456 26.9368 78.4242 28.3045 83.3712 29.6528 87.7264 31.7868 94.6231 35.4049 100.007 41.4867 104.042 46.2397 107.204 52.2343 108.979 57.7245 107.446 63.2243 105.914 67.7542 100.424 66.9394 94.7686Z" stroke="#231F20" stroke-width="1.23189" stroke-miterlimit="10" fill="#98CAEA" transform="matrix(1 0 0 1.00051 604.28 436)"/><path d="M114.547 79.4815C123.762 85.3208 130.814 92.9644 133.986 103.566 136.362 111.482 136.517 120.056 134.441 128.049 133.704 130.901 132.628 134.112 130.775 136.44 128.68 139.078 125.566 140.184 122.51 138.671 116.409 135.654 116.341 113.887 116.341 113.887 117.108 121.317 117.554 133.782 118.01 142.201 118.039 142.764 117.593 143.23 117.02 143.21 96.3109 142.696 74.001 143.036 53.2916 143.23 52.7484 143.23 52.3022 142.783 52.3022 142.24 52.3119 131.803 53.0685 119.271 54.2907 109.057 54.3004 108.96 53.214 113.848 53.1849 113.936 52.1664 117.728 50.9345 124.499 48.0342 125.741 44.9108 127.069 35.3564 118.029 33.4164 114.45 32.1457 112.102 32.7956 109.949 33.688 107.67 36.4815 100.589 39.9347 93.7889 43.126 86.8825 45.9196 80.8492 49.1109 73.7779 48.0245 66.9588 47.6462 64.592 56.4344 72.0222 58.6848 73.0698 65.9791 76.4745 74.7188 75.5918 82.5467 75.5918L101.19 75.5918C105.914 75.5918 110.541 76.9304 114.527 79.4621Z" fill="#3C4F70" transform="matrix(1 0 0 1.00051 604.28 436)"/><g clip-path="url(#clip0)"><path d="M57.5208 139.078C57.5208 135.751 60.2174 133.054 63.5444 133.054 66.8715 133.054 69.5681 135.751 69.5681 139.078" stroke="#90A9BF" stroke-width="0.523798" stroke-miterlimit="10" fill="#3B4F6F" transform="matrix(1 0 0 1.00051 604.28 436)"/><path d="M57.5208 139.078C57.5208 135.751 60.2174 133.054 63.5444 133.054 66.8715 133.054 69.5681 135.751 69.5681 139.078" stroke="#90A9BF" stroke-width="0.523798" stroke-miterlimit="10" fill="#3B4F6F" transform="matrix(1 0 0 1.00051 604.28 436)"/><path d="M58.8691 139.078C58.8691 136.498 60.9545 134.412 63.5347 134.412 66.1149 134.412 68.2004 136.498 68.2004 139.078" stroke="#90A9BF" stroke-width="0.523798" stroke-miterlimit="10" fill="#3B4F6F" transform="matrix(1 0 0 1.00051 604.28 436)"/><path d="M60.2367 139.078C60.2367 137.254 61.7111 135.78 63.5347 135.78 65.3583 135.78 66.8327 137.254 66.8327 139.078" stroke="#90A9BF" stroke-width="0.523798" stroke-miterlimit="10" fill="#3B4F6F" transform="matrix(1 0 0 1.00051 604.28 436)"/><path d="M61.7499 139.078C61.7499 138.089 62.555 137.284 63.5444 137.284 64.5338 137.284 65.3389 138.089 65.3389 139.078" stroke="#90A9BF" stroke-width="0.523798" stroke-miterlimit="10" fill="#3B4F6F" transform="matrix(1 0 0 1.00051 604.28 436)"/><path d="M62.9333 139.078C62.9333 138.739 63.2049 138.467 63.5444 138.467 63.8839 138.467 64.1555 138.739 64.1555 139.078" stroke="#90A9BF" stroke-width="0.523798" stroke-miterlimit="10" fill="#3B4F6F" transform="matrix(1 0 0 1.00051 604.28 436)"/><path d="M71.9252 139.078C71.9252 135.751 74.6218 133.054 77.9489 133.054 81.276 133.054 83.9725 135.751 83.9725 139.078" stroke="#90A9BF" stroke-width="0.523798" stroke-miterlimit="10" fill="#3B4F6F" transform="matrix(1 0 0 1.00051 604.28 436)"/><path d="M71.9252 139.078C71.9252 135.751 74.6218 133.054 77.9489 133.054 81.276 133.054 83.9725 135.751 83.9725 139.078" stroke="#90A9BF" stroke-width="0.523798" stroke-miterlimit="10" fill="#3B4F6F" transform="matrix(1 0 0 1.00051 604.28 436)"/><path d="M73.2735 139.078C73.2735 136.498 75.359 134.412 77.9392 134.412 80.5194 134.412 82.6049 136.498 82.6049 139.078" stroke="#90A9BF" stroke-width="0.523798" stroke-miterlimit="10" fill="#3B4F6F" transform="matrix(1 0 0 1.00051 604.28 436)"/><path d="M74.6412 139.078C74.6412 137.254 76.1156 135.78 77.9392 135.78 79.7628 135.78 81.2372 137.254 81.2372 139.078" stroke="#90A9BF" stroke-width="0.523798" stroke-miterlimit="10" fill="#3B4F6F" transform="matrix(1 0 0 1.00051 604.28 436)"/><path d="M76.1544 139.078C76.1544 138.089 76.9595 137.284 77.9489 137.284 78.9383 137.284 79.7434 138.089 79.7434 139.078" stroke="#90A9BF" stroke-width="0.523798" stroke-miterlimit="10" fill="#3B4F6F" transform="matrix(1 0 0 1.00051 604.28 436)"/><path d="M77.3378 139.078C77.3378 138.739 77.6094 138.467 77.9489 138.467 78.2884 138.467 78.56 138.739 78.56 139.078" stroke="#90A9BF" stroke-width="0.523798" stroke-miterlimit="10" fill="#3B4F6F" transform="matrix(1 0 0 1.00051 604.28 436)"/><path d="M86.3296 139.078C86.3296 135.751 89.0262 133.054 92.3533 133.054 95.6804 133.054 98.377 135.751 98.377 139.078" stroke="#90A9BF" stroke-width="0.523798" stroke-miterlimit="10" fill="#3B4F6F" transform="matrix(1 0 0 1.00051 604.28 436)"/><path d="M86.3296 139.078C86.3296 135.751 89.0262 133.054 92.3533 133.054 95.6804 133.054 98.377 135.751 98.377 139.078" stroke="#90A9BF" stroke-width="0.523798" stroke-miterlimit="10" fill="#3B4F6F" transform="matrix(1 0 0 1.00051 604.28 436)"/><path d="M87.6876 139.078C87.6876 136.498 89.7731 134.412 92.3533 134.412 94.9335 134.412 97.019 136.498 97.019 139.078" stroke="#90A9BF" stroke-width="0.523798" stroke-miterlimit="10" fill="#3B4F6F" transform="matrix(1 0 0 1.00051 604.28 436)"/><path d="M89.0553 139.078C89.0553 137.254 90.5297 135.78 92.3533 135.78 94.1769 135.78 95.6513 137.254 95.6513 139.078" stroke="#90A9BF" stroke-width="0.523798" stroke-miterlimit="10" fill="#3B4F6F" transform="matrix(1 0 0 1.00051 604.28 436)"/><path d="M90.5588 139.078C90.5588 138.089 91.3639 137.284 92.3533 137.284 93.3427 137.284 94.1478 138.089 94.1478 139.078" stroke="#90A9BF" stroke-width="0.523798" stroke-miterlimit="10" fill="#3B4F6F" transform="matrix(1 0 0 1.00051 604.28 436)"/><path d="M91.7422 139.078C91.7422 138.739 92.0138 138.467 92.3533 138.467 92.6928 138.467 92.9644 138.739 92.9644 139.078" stroke="#90A9BF" stroke-width="0.523798" stroke-miterlimit="10" fill="#3B4F6F" transform="matrix(1 0 0 1.00051 604.28 436)"/><path d="M100.734 139.078C100.734 135.751 103.431 133.054 106.758 133.054 110.085 133.054 112.781 135.751 112.781 139.078" stroke="#90A9BF" stroke-width="0.523798" stroke-miterlimit="10" fill="#3B4F6F" transform="matrix(1 0 0 1.00051 604.28 436)"/><path d="M100.734 139.078C100.734 135.751 103.431 133.054 106.758 133.054 110.085 133.054 112.781 135.751 112.781 139.078" stroke="#90A9BF" stroke-width="0.523798" stroke-miterlimit="10" fill="#3B4F6F" transform="matrix(1 0 0 1.00051 604.28 436)"/><path d="M102.092 139.078C102.092 136.498 104.178 134.412 106.758 134.412 109.338 134.412 111.423 136.498 111.423 139.078" stroke="#90A9BF" stroke-width="0.523798" stroke-miterlimit="10" fill="#3B4F6F" transform="matrix(1 0 0 1.00051 604.28 436)"/><path d="M103.46 139.078C103.46 137.254 104.934 135.78 106.758 135.78 108.581 135.78 110.056 137.254 110.056 139.078" stroke="#90A9BF" stroke-width="0.523798" stroke-miterlimit="10" fill="#3B4F6F" transform="matrix(1 0 0 1.00051 604.28 436)"/><path d="M104.963 139.078C104.963 138.089 105.768 137.284 106.758 137.284 107.747 137.284 108.552 138.089 108.552 139.078" stroke="#90A9BF" stroke-width="0.523798" stroke-miterlimit="10" fill="#3B4F6F" transform="matrix(1 0 0 1.00051 604.28 436)"/><path d="M106.147 139.078C106.147 138.739 106.418 138.467 106.758 138.467 107.097 138.467 107.369 138.739 107.369 139.078" stroke="#90A9BF" stroke-width="0.523798" stroke-miterlimit="10" fill="#3B4F6F" transform="matrix(1 0 0 1.00051 604.28 436)"/><path d="M115.139 139.078C115.139 135.751 117.835 133.054 121.162 133.054 124.489 133.054 127.186 135.751 127.186 139.078" stroke="#90A9BF" stroke-width="0.523798" stroke-miterlimit="10" fill="#3B4F6F" transform="matrix(1 0 0 1.00051 604.28 436)"/><path d="M115.139 139.078C115.139 135.751 117.835 133.054 121.162 133.054 124.489 133.054 127.186 135.751 127.186 139.078" stroke="#90A9BF" stroke-width="0.523798" stroke-miterlimit="10" fill="#3B4F6F" transform="matrix(1 0 0 1.00051 604.28 436)"/><path d="M116.497 139.078C116.497 136.498 118.582 134.412 121.162 134.412 123.742 134.412 125.828 136.498 125.828 139.078" stroke="#90A9BF" stroke-width="0.523798" stroke-miterlimit="10" fill="#3B4F6F" transform="matrix(1 0 0 1.00051 604.28 436)"/><path d="M117.864 139.078C117.864 137.254 119.339 135.78 121.162 135.78 122.986 135.78 124.46 137.254 124.46 139.078" stroke="#90A9BF" stroke-width="0.523798" stroke-miterlimit="10" fill="#3B4F6F" transform="matrix(1 0 0 1.00051 604.28 436)"/><path d="M119.368 139.078C119.368 138.089 120.173 137.284 121.162 137.284 122.152 137.284 122.957 138.089 122.957 139.078" stroke="#90A9BF" stroke-width="0.523798" stroke-miterlimit="10" fill="#3B4F6F" transform="matrix(1 0 0 1.00051 604.28 436)"/><path d="M50.2846 137.943C50.2846 134.616 52.9812 131.919 56.3083 131.919 59.6354 131.919 62.3319 134.616 62.3319 137.943" stroke="#90A9BF" stroke-width="0.523798" stroke-miterlimit="10" fill="#3B4F6F" transform="matrix(1 0 0 1.00051 604.28 436)"/><path d="M50.2846 137.943C50.2846 134.616 52.9812 131.919 56.3083 131.919 59.6354 131.919 62.3319 134.616 62.3319 137.943" stroke="#90A9BF" stroke-width="0.523798" stroke-miterlimit="10" fill="#3B4F6F" transform="matrix(1 0 0 1.00051 604.28 436)"/><path d="M51.6329 137.943C51.6329 135.363 53.7184 133.277 56.2986 133.277 58.8788 133.277 60.9642 135.363 60.9642 137.943" stroke="#90A9BF" stroke-width="0.523798" stroke-miterlimit="10" fill="#3B4F6F" transform="matrix(1 0 0 1.00051 604.28 436)"/><path d="M53.0006 137.943C53.0006 136.12 54.475 134.645 56.2986 134.645 58.1222 134.645 59.5965 136.12 59.5965 137.943" stroke="#90A9BF" stroke-width="0.523798" stroke-miterlimit="10" fill="#3B4F6F" transform="matrix(1 0 0 1.00051 604.28 436)"/><path d="M54.5138 137.943C54.5138 136.954 55.3189 136.149 56.3083 136.149 57.2977 136.149 58.1028 136.954 58.1028 137.943" stroke="#90A9BF" stroke-width="0.523798" stroke-miterlimit="10" fill="#3B4F6F" transform="matrix(1 0 0 1.00051 604.28 436)"/><path d="M64.689 137.943C64.689 134.616 67.3856 131.919 70.7127 131.919 74.0398 131.919 76.7364 134.616 76.7364 137.943" stroke="#90A9BF" stroke-width="0.523798" stroke-miterlimit="10" fill="#3B4F6F" transform="matrix(1 0 0 1.00051 604.28 436)"/><path d="M64.689 137.943C64.689 134.616 67.3856 131.919 70.7127 131.919 74.0398 131.919 76.7364 134.616 76.7364 137.943" stroke="#90A9BF" stroke-width="0.523798" stroke-miterlimit="10" fill="#3B4F6F" transform="matrix(1 0 0 1.00051 604.28 436)"/><path d="M66.0373 137.943C66.0373 135.363 68.1228 133.277 70.703 133.277 73.2832 133.277 75.3687 135.363 75.3687 137.943" stroke="#90A9BF" stroke-width="0.523798" stroke-miterlimit="10" fill="#3B4F6F" transform="matrix(1 0 0 1.00051 604.28 436)"/><path d="M67.405 137.943C67.405 136.12 68.8794 134.645 70.703 134.645 72.5266 134.645 74.001 136.12 74.001 137.943" stroke="#90A9BF" stroke-width="0.523798" stroke-miterlimit="10" fill="#3B4F6F" transform="matrix(1 0 0 1.00051 604.28 436)"/><path d="M68.9182 137.943C68.9182 136.954 69.7233 136.149 70.7127 136.149 71.7021 136.149 72.5072 136.954 72.5072 137.943" stroke="#90A9BF" stroke-width="0.523798" stroke-miterlimit="10" fill="#3B4F6F" transform="matrix(1 0 0 1.00051 604.28 436)"/><path d="M79.0935 137.943C79.0935 134.616 81.7901 131.919 85.1171 131.919 88.4442 131.919 91.1408 134.616 91.1408 137.943" stroke="#90A9BF" stroke-width="0.523798" stroke-miterlimit="10" fill="#3B4F6F" transform="matrix(1 0 0 1.00051 604.28 436)"/><path d="M79.0935 137.943C79.0935 134.616 81.7901 131.919 85.1171 131.919 88.4442 131.919 91.1408 134.616 91.1408 137.943" stroke="#90A9BF" stroke-width="0.523798" stroke-miterlimit="10" fill="#3B4F6F" transform="matrix(1 0 0 1.00051 604.28 436)"/><path d="M80.4515 137.943C80.4515 135.363 82.537 133.277 85.1171 133.277 87.6973 133.277 89.7828 135.363 89.7828 137.943" stroke="#90A9BF" stroke-width="0.523798" stroke-miterlimit="10" fill="#3B4F6F" transform="matrix(1 0 0 1.00051 604.28 436)"/><path d="M81.8095 137.943C81.8095 136.12 83.2839 134.645 85.1074 134.645 86.931 134.645 88.4054 136.12 88.4054 137.943" stroke="#90A9BF" stroke-width="0.523798" stroke-miterlimit="10" fill="#3B4F6F" transform="matrix(1 0 0 1.00051 604.28 436)"/><path d="M83.3227 137.943C83.3227 136.954 84.1278 136.149 85.1171 136.149 86.1065 136.149 86.9116 136.954 86.9116 137.943" stroke="#90A9BF" stroke-width="0.523798" stroke-miterlimit="10" fill="#3B4F6F" transform="matrix(1 0 0 1.00051 604.28 436)"/><path d="M93.4979 137.943C93.4979 134.616 96.1945 131.919 99.5216 131.919 102.849 131.919 105.545 134.616 105.545 137.943" stroke="#90A9BF" stroke-width="0.523798" stroke-miterlimit="10" fill="#3B4F6F" transform="matrix(1 0 0 1.00051 604.28 436)"/><path d="M93.4979 137.943C93.4979 134.616 96.1945 131.919 99.5216 131.919 102.849 131.919 105.545 134.616 105.545 137.943" stroke="#90A9BF" stroke-width="0.523798" stroke-miterlimit="10" fill="#3B4F6F" transform="matrix(1 0 0 1.00051 604.28 436)"/><path d="M94.8559 137.943C94.8559 135.363 96.9414 133.277 99.5216 133.277 102.102 133.277 104.187 135.363 104.187 137.943" stroke="#90A9BF" stroke-width="0.523798" stroke-miterlimit="10" fill="#3B4F6F" transform="matrix(1 0 0 1.00051 604.28 436)"/><path d="M96.2236 137.943C96.2236 136.12 97.698 134.645 99.5216 134.645 101.345 134.645 102.82 136.12 102.82 137.943" stroke="#90A9BF" stroke-width="0.523798" stroke-miterlimit="10" fill="#3B4F6F" transform="matrix(1 0 0 1.00051 604.28 436)"/><path d="M97.7271 137.943C97.7271 136.954 98.5322 136.149 99.5216 136.149 100.511 136.149 101.316 136.954 101.316 137.943" stroke="#90A9BF" stroke-width="0.523798" stroke-miterlimit="10" fill="#3B4F6F" transform="matrix(1 0 0 1.00051 604.28 436)"/><path d="M107.902 137.943C107.902 134.616 110.599 131.919 113.926 131.919 117.253 131.919 119.95 134.616 119.95 137.943" stroke="#90A9BF" stroke-width="0.523798" stroke-miterlimit="10" fill="#3B4F6F" transform="matrix(1 0 0 1.00051 604.28 436)"/><path d="M107.902 137.943C107.902 134.616 110.599 131.919 113.926 131.919 117.253 131.919 119.95 134.616 119.95 137.943" stroke="#90A9BF" stroke-width="0.523798" stroke-miterlimit="10" fill="#3B4F6F" transform="matrix(1 0 0 1.00051 604.28 436)"/><path d="M109.26 137.943C109.26 135.363 111.346 133.277 113.926 133.277 116.506 133.277 118.592 135.363 118.592 137.943" stroke="#90A9BF" stroke-width="0.523798" stroke-miterlimit="10" fill="#3B4F6F" transform="matrix(1 0 0 1.00051 604.28 436)"/><path d="M110.628 137.943C110.628 136.12 112.102 134.645 113.926 134.645 115.75 134.645 117.224 136.12 117.224 137.943" stroke="#90A9BF" stroke-width="0.523798" stroke-miterlimit="10" fill="#3B4F6F" transform="matrix(1 0 0 1.00051 604.28 436)"/><path d="M112.132 137.943C112.132 136.954 112.937 136.149 113.926 136.149 114.915 136.149 115.721 136.954 115.721 137.943" stroke="#90A9BF" stroke-width="0.523798" stroke-miterlimit="10" fill="#3B4F6F" transform="matrix(1 0 0 1.00051 604.28 436)"/><path d="M50.2846 143.123C50.2846 139.796 52.9812 137.099 56.3083 137.099 59.6354 137.099 62.3319 139.796 62.3319 143.123" stroke="#90A9BF" stroke-width="0.523798" stroke-miterlimit="10" fill="#3B4F6F" transform="matrix(1 0 0 1.00051 604.28 436)"/><path d="M50.2846 143.123C50.2846 139.796 52.9812 137.099 56.3083 137.099 59.6354 137.099 62.3319 139.796 62.3319 143.123" stroke="#90A9BF" stroke-width="0.523798" stroke-miterlimit="10" fill="#3B4F6F" transform="matrix(1 0 0 1.00051 604.28 436)"/><path d="M51.6329 143.123C51.6329 140.543 53.7184 138.457 56.2986 138.457 58.8788 138.457 60.9642 140.543 60.9642 143.123" stroke="#90A9BF" stroke-width="0.523798" stroke-miterlimit="10" fill="#3B4F6F" transform="matrix(1 0 0 1.00051 604.28 436)"/><path d="M53.0006 143.123C53.0006 141.299 54.475 139.825 56.2986 139.825 58.1222 139.825 59.5965 141.299 59.5965 143.123" stroke="#90A9BF" stroke-width="0.523798" stroke-miterlimit="10" fill="#3B4F6F" transform="matrix(1 0 0 1.00051 604.28 436)"/><path d="M54.5138 143.123C54.5138 142.134 55.3189 141.328 56.3083 141.328 57.2977 141.328 58.1028 142.134 58.1028 143.123" stroke="#90A9BF" stroke-width="0.523798" stroke-miterlimit="10" fill="#3B4F6F" transform="matrix(1 0 0 1.00051 604.28 436)"/><path d="M55.6972 143.123C55.6972 142.783 55.9688 142.512 56.3083 142.512 56.6478 142.512 56.9194 142.783 56.9194 143.123" stroke="#90A9BF" stroke-width="0.523798" stroke-miterlimit="10" fill="#3B4F6F" transform="matrix(1 0 0 1.00051 604.28 436)"/><path d="M64.689 143.123C64.689 139.796 67.3856 137.099 70.7127 137.099 74.0398 137.099 76.7364 139.796 76.7364 143.123" stroke="#90A9BF" stroke-width="0.523798" stroke-miterlimit="10" fill="#3B4F6F" transform="matrix(1 0 0 1.00051 604.28 436)"/><path d="M64.689 143.123C64.689 139.796 67.3856 137.099 70.7127 137.099 74.0398 137.099 76.7364 139.796 76.7364 143.123" stroke="#90A9BF" stroke-width="0.523798" stroke-miterlimit="10" fill="#3B4F6F" transform="matrix(1 0 0 1.00051 604.28 436)"/><path d="M66.0373 143.123C66.0373 140.543 68.1228 138.457 70.703 138.457 73.2832 138.457 75.3687 140.543 75.3687 143.123" stroke="#90A9BF" stroke-width="0.523798" stroke-miterlimit="10" fill="#3B4F6F" transform="matrix(1 0 0 1.00051 604.28 436)"/><path d="M67.405 143.123C67.405 141.299 68.8794 139.825 70.703 139.825 72.5266 139.825 74.001 141.299 74.001 143.123" stroke="#90A9BF" stroke-width="0.523798" stroke-miterlimit="10" fill="#3B4F6F" transform="matrix(1 0 0 1.00051 604.28 436)"/><path d="M68.9182 143.123C68.9182 142.134 69.7233 141.328 70.7127 141.328 71.7021 141.328 72.5072 142.134 72.5072 143.123" stroke="#90A9BF" stroke-width="0.523798" stroke-miterlimit="10" fill="#3B4F6F" transform="matrix(1 0 0 1.00051 604.28 436)"/><path d="M70.1016 143.123C70.1016 142.783 70.3732 142.512 70.7127 142.512 71.0522 142.512 71.3238 142.783 71.3238 143.123" stroke="#90A9BF" stroke-width="0.523798" stroke-miterlimit="10" fill="#3B4F6F" transform="matrix(1 0 0 1.00051 604.28 436)"/><path d="M79.0935 143.123C79.0935 139.796 81.7901 137.099 85.1171 137.099 88.4442 137.099 91.1408 139.796 91.1408 143.123" stroke="#90A9BF" stroke-width="0.523798" stroke-miterlimit="10" fill="#3B4F6F" transform="matrix(1 0 0 1.00051 604.28 436)"/><path d="M79.0935 143.123C79.0935 139.796 81.7901 137.099 85.1171 137.099 88.4442 137.099 91.1408 139.796 91.1408 143.123" stroke="#90A9BF" stroke-width="0.523798" stroke-miterlimit="10" fill="#3B4F6F" transform="matrix(1 0 0 1.00051 604.28 436)"/><path d="M80.4418 143.123C80.4418 140.543 82.5273 138.457 85.1074 138.457 87.6876 138.457 89.7731 140.543 89.7731 143.123" stroke="#90A9BF" stroke-width="0.523798" stroke-miterlimit="10" fill="#3B4F6F" transform="matrix(1 0 0 1.00051 604.28 436)"/><path d="M81.8095 143.123C81.8095 141.299 83.2839 139.825 85.1074 139.825 86.931 139.825 88.4054 141.299 88.4054 143.123" stroke="#90A9BF" stroke-width="0.523798" stroke-miterlimit="10" fill="#3B4F6F" transform="matrix(1 0 0 1.00051 604.28 436)"/><path d="M83.3227 143.123C83.3227 142.134 84.1278 141.328 85.1171 141.328 86.1065 141.328 86.9116 142.134 86.9116 143.123" stroke="#90A9BF" stroke-width="0.523798" stroke-miterlimit="10" fill="#3B4F6F" transform="matrix(1 0 0 1.00051 604.28 436)"/><path d="M84.5061 143.123C84.5061 142.783 84.7776 142.512 85.1171 142.512 85.4566 142.512 85.7282 142.783 85.7282 143.123" stroke="#90A9BF" stroke-width="0.523798" stroke-miterlimit="10" fill="#3B4F6F" transform="matrix(1 0 0 1.00051 604.28 436)"/><path d="M93.4979 143.123C93.4979 139.796 96.1945 137.099 99.5216 137.099 102.849 137.099 105.545 139.796 105.545 143.123" stroke="#90A9BF" stroke-width="0.523798" stroke-miterlimit="10" fill="#3B4F6F" transform="matrix(1 0 0 1.00051 604.28 436)"/><path d="M93.4979 143.123C93.4979 139.796 96.1945 137.099 99.5216 137.099 102.849 137.099 105.545 139.796 105.545 143.123" stroke="#90A9BF" stroke-width="0.523798" stroke-miterlimit="10" fill="#3B4F6F" transform="matrix(1 0 0 1.00051 604.28 436)"/><path d="M94.8559 143.123C94.8559 140.543 96.9414 138.457 99.5216 138.457 102.102 138.457 104.187 140.543 104.187 143.123" stroke="#90A9BF" stroke-width="0.523798" stroke-miterlimit="10" fill="#3B4F6F" transform="matrix(1 0 0 1.00051 604.28 436)"/><path d="M96.2236 143.123C96.2236 141.299 97.698 139.825 99.5216 139.825 101.345 139.825 102.82 141.299 102.82 143.123" stroke="#90A9BF" stroke-width="0.523798" stroke-miterlimit="10" fill="#3B4F6F" transform="matrix(1 0 0 1.00051 604.28 436)"/><path d="M97.7271 143.123C97.7271 142.134 98.5322 141.328 99.5216 141.328 100.511 141.328 101.316 142.134 101.316 143.123" stroke="#90A9BF" stroke-width="0.523798" stroke-miterlimit="10" fill="#3B4F6F" transform="matrix(1 0 0 1.00051 604.28 436)"/><path d="M98.9105 143.123C98.9105 142.783 99.1821 142.512 99.5216 142.512 99.8611 142.512 100.133 142.783 100.133 143.123" stroke="#90A9BF" stroke-width="0.523798" stroke-miterlimit="10" fill="#3B4F6F" transform="matrix(1 0 0 1.00051 604.28 436)"/><path d="M107.902 143.123C107.902 139.796 110.599 137.099 113.926 137.099 117.253 137.099 119.95 139.796 119.95 143.123" stroke="#90A9BF" stroke-width="0.523798" stroke-miterlimit="10" fill="#3B4F6F" transform="matrix(1 0 0 1.00051 604.28 436)"/><path d="M107.902 143.123C107.902 139.796 110.599 137.099 113.926 137.099 117.253 137.099 119.95 139.796 119.95 143.123" stroke="#90A9BF" stroke-width="0.523798" stroke-miterlimit="10" fill="#3B4F6F" transform="matrix(1 0 0 1.00051 604.28 436)"/><path d="M109.26 143.123C109.26 140.543 111.346 138.457 113.926 138.457 116.506 138.457 118.592 140.543 118.592 143.123" stroke="#90A9BF" stroke-width="0.523798" stroke-miterlimit="10" fill="#3B4F6F" transform="matrix(1 0 0 1.00051 604.28 436)"/><path d="M110.628 143.123C110.628 141.299 112.102 139.825 113.926 139.825 115.75 139.825 117.224 141.299 117.224 143.123" stroke="#90A9BF" stroke-width="0.523798" stroke-miterlimit="10" fill="#3B4F6F" transform="matrix(1 0 0 1.00051 604.28 436)"/><path d="M112.132 143.123C112.132 142.134 112.937 141.328 113.926 141.328 114.915 141.328 115.721 142.134 115.721 143.123" stroke="#90A9BF" stroke-width="0.523798" stroke-miterlimit="10" fill="#3B4F6F" transform="matrix(1 0 0 1.00051 604.28 436)"/><path d="M57.5208 143.123C57.5208 139.796 60.2174 137.099 63.5444 137.099 66.8715 137.099 69.5681 139.796 69.5681 143.123" stroke="#90A9BF" stroke-width="0.523798" stroke-miterlimit="10" fill="#3B4F6F" transform="matrix(1 0 0 1.00051 604.28 436)"/><path d="M57.5208 143.123C57.5208 139.796 60.2174 137.099 63.5444 137.099 66.8715 137.099 69.5681 139.796 69.5681 143.123" stroke="#90A9BF" stroke-width="0.523798" stroke-miterlimit="10" fill="#3B4F6F" transform="matrix(1 0 0 1.00051 604.28 436)"/><path d="M58.8691 143.123C58.8691 140.543 60.9545 138.457 63.5347 138.457 66.1149 138.457 68.2004 140.543 68.2004 143.123" stroke="#90A9BF" stroke-width="0.523798" stroke-miterlimit="10" fill="#3B4F6F" transform="matrix(1 0 0 1.00051 604.28 436)"/><path d="M60.2367 143.123C60.2367 141.299 61.7111 139.825 63.5347 139.825 65.3583 139.825 66.8327 141.299 66.8327 143.123" stroke="#90A9BF" stroke-width="0.523798" stroke-miterlimit="10" fill="#3B4F6F" transform="matrix(1 0 0 1.00051 604.28 436)"/><path d="M61.7499 143.123C61.7499 142.134 62.555 141.328 63.5444 141.328 64.5338 141.328 65.3389 142.134 65.3389 143.123" stroke="#90A9BF" stroke-width="0.523798" stroke-miterlimit="10" fill="#3B4F6F" transform="matrix(1 0 0 1.00051 604.28 436)"/><path d="M62.9333 143.123C62.9333 142.783 63.2049 142.512 63.5444 142.512 63.8839 142.512 64.1555 142.783 64.1555 143.123" stroke="#90A9BF" stroke-width="0.523798" stroke-miterlimit="10" fill="#3B4F6F" transform="matrix(1 0 0 1.00051 604.28 436)"/><path d="M71.9252 143.123C71.9252 139.796 74.6218 137.099 77.9489 137.099 81.276 137.099 83.9725 139.796 83.9725 143.123" stroke="#90A9BF" stroke-width="0.523798" stroke-miterlimit="10" fill="#3B4F6F" transform="matrix(1 0 0 1.00051 604.28 436)"/><path d="M71.9252 143.123C71.9252 139.796 74.6218 137.099 77.9489 137.099 81.276 137.099 83.9725 139.796 83.9725 143.123" stroke="#90A9BF" stroke-width="0.523798" stroke-miterlimit="10" fill="#3B4F6F" transform="matrix(1 0 0 1.00051 604.28 436)"/><path d="M73.2735 143.123C73.2735 140.543 75.359 138.457 77.9392 138.457 80.5194 138.457 82.6049 140.543 82.6049 143.123" stroke="#90A9BF" stroke-width="0.523798" stroke-miterlimit="10" fill="#3B4F6F" transform="matrix(1 0 0 1.00051 604.28 436)"/><path d="M74.6412 143.123C74.6412 141.299 76.1156 139.825 77.9392 139.825 79.7628 139.825 81.2372 141.299 81.2372 143.123" stroke="#90A9BF" stroke-width="0.523798" stroke-miterlimit="10" fill="#3B4F6F" transform="matrix(1 0 0 1.00051 604.28 436)"/><path d="M76.1544 143.123C76.1544 142.134 76.9595 141.328 77.9489 141.328 78.9383 141.328 79.7434 142.134 79.7434 143.123" stroke="#90A9BF" stroke-width="0.523798" stroke-miterlimit="10" fill="#3B4F6F" transform="matrix(1 0 0 1.00051 604.28 436)"/><path d="M77.3378 143.123C77.3378 142.783 77.6094 142.512 77.9489 142.512 78.2884 142.512 78.56 142.783 78.56 143.123" stroke="#90A9BF" stroke-width="0.523798" stroke-miterlimit="10" fill="#3B4F6F" transform="matrix(1 0 0 1.00051 604.28 436)"/><path d="M86.3296 143.123C86.3296 139.796 89.0262 137.099 92.3533 137.099 95.6804 137.099 98.377 139.796 98.377 143.123" stroke="#90A9BF" stroke-width="0.523798" stroke-miterlimit="10" fill="#3B4F6F" transform="matrix(1 0 0 1.00051 604.28 436)"/><path d="M86.3296 143.123C86.3296 139.796 89.0262 137.099 92.3533 137.099 95.6804 137.099 98.377 139.796 98.377 143.123" stroke="#90A9BF" stroke-width="0.523798" stroke-miterlimit="10" fill="#3B4F6F" transform="matrix(1 0 0 1.00051 604.28 436)"/><path d="M87.6876 143.123C87.6876 140.543 89.7731 138.457 92.3533 138.457 94.9335 138.457 97.019 140.543 97.019 143.123" stroke="#90A9BF" stroke-width="0.523798" stroke-miterlimit="10" fill="#3B4F6F" transform="matrix(1 0 0 1.00051 604.28 436)"/><path d="M89.0553 143.123C89.0553 141.299 90.5297 139.825 92.3533 139.825 94.1769 139.825 95.6513 141.299 95.6513 143.123" stroke="#90A9BF" stroke-width="0.523798" stroke-miterlimit="10" fill="#3B4F6F" transform="matrix(1 0 0 1.00051 604.28 436)"/><path d="M90.5588 143.123C90.5588 142.134 91.3639 141.328 92.3533 141.328 93.3427 141.328 94.1478 142.134 94.1478 143.123" stroke="#90A9BF" stroke-width="0.523798" stroke-miterlimit="10" fill="#3B4F6F" transform="matrix(1 0 0 1.00051 604.28 436)"/><path d="M91.7422 143.123C91.7422 142.783 92.0138 142.512 92.3533 142.512 92.6928 142.512 92.9644 142.783 92.9644 143.123" stroke="#90A9BF" stroke-width="0.523798" stroke-miterlimit="10" fill="#3B4F6F" transform="matrix(1 0 0 1.00051 604.28 436)"/><path d="M100.734 143.123C100.734 139.796 103.431 137.099 106.758 137.099 110.085 137.099 112.781 139.796 112.781 143.123" stroke="#90A9BF" stroke-width="0.523798" stroke-miterlimit="10" fill="#3B4F6F" transform="matrix(1 0 0 1.00051 604.28 436)"/><path d="M100.734 143.123C100.734 139.796 103.431 137.099 106.758 137.099 110.085 137.099 112.781 139.796 112.781 143.123" stroke="#90A9BF" stroke-width="0.523798" stroke-miterlimit="10" fill="#3B4F6F" transform="matrix(1 0 0 1.00051 604.28 436)"/><path d="M102.092 143.123C102.092 140.543 104.178 138.457 106.758 138.457 109.338 138.457 111.423 140.543 111.423 143.123" stroke="#90A9BF" stroke-width="0.523798" stroke-miterlimit="10" fill="#3B4F6F" transform="matrix(1 0 0 1.00051 604.28 436)"/><path d="M103.46 143.123C103.46 141.299 104.934 139.825 106.758 139.825 108.581 139.825 110.056 141.299 110.056 143.123" stroke="#90A9BF" stroke-width="0.523798" stroke-miterlimit="10" fill="#3B4F6F" transform="matrix(1 0 0 1.00051 604.28 436)"/><path d="M104.963 143.123C104.963 142.134 105.768 141.328 106.758 141.328 107.747 141.328 108.552 142.134 108.552 143.123" stroke="#90A9BF" stroke-width="0.523798" stroke-miterlimit="10" fill="#3B4F6F" transform="matrix(1 0 0 1.00051 604.28 436)"/><path d="M106.147 143.123C106.147 142.783 106.418 142.512 106.758 142.512 107.097 142.512 107.369 142.783 107.369 143.123" stroke="#90A9BF" stroke-width="0.523798" stroke-miterlimit="10" fill="#3B4F6F" transform="matrix(1 0 0 1.00051 604.28 436)"/><path d="M115.139 143.123C115.139 139.796 117.835 137.099 121.162 137.099 124.489 137.099 127.186 139.796 127.186 143.123" stroke="#90A9BF" stroke-width="0.523798" stroke-miterlimit="10" fill="#3B4F6F" transform="matrix(1 0 0 1.00051 604.28 436)"/><path d="M115.139 143.123C115.139 139.796 117.835 137.099 121.162 137.099 124.489 137.099 127.186 139.796 127.186 143.123" stroke="#90A9BF" stroke-width="0.523798" stroke-miterlimit="10" fill="#3B4F6F" transform="matrix(1 0 0 1.00051 604.28 436)"/><path d="M116.497 143.123C116.497 140.543 118.582 138.457 121.162 138.457 123.742 138.457 125.828 140.543 125.828 143.123" stroke="#90A9BF" stroke-width="0.523798" stroke-miterlimit="10" fill="#3B4F6F" transform="matrix(1 0 0 1.00051 604.28 436)"/><path d="M117.864 143.123C117.864 141.299 119.339 139.825 121.162 139.825 122.986 139.825 124.46 141.299 124.46 143.123" stroke="#90A9BF" stroke-width="0.523798" stroke-miterlimit="10" fill="#3B4F6F" transform="matrix(1 0 0 1.00051 604.28 436)"/><path d="M119.368 143.123C119.368 142.134 120.173 141.328 121.162 141.328 122.152 141.328 122.957 142.134 122.957 143.123" stroke="#90A9BF" stroke-width="0.523798" stroke-miterlimit="10" fill="#3B4F6F" transform="matrix(1 0 0 1.00051 604.28 436)"/><path d="M115.556 143.123C115.556 142.783 115.827 142.512 116.167 142.512 116.506 142.512 116.778 142.783 116.778 143.123" stroke="#90A9BF" stroke-width="0.523798" stroke-miterlimit="10" fill="none" transform="matrix(1 0 0 1.00051 604.28 436)"/><path d="M131.444 136.352C130.911 138.477 132.666 139.728 130.833 140.921 129.524 141.775 127.894 141.969 126.342 142.124 124.286 142.327 124.499 141.668 122.772 140.533 121.996 140.029 120.764 140.048 120.25 139.272 118.592 136.779 117.68 133.908 117.913 130.92 118.146 127.894 117.69 124.916 119.154 122.258 120.803 119.271 122.753 116.458 124.693 113.645 125.954 111.821 127.215 109.998 128.621 108.281 129.669 107 131.958 112.558 132.337 113.47 133.297 115.779 134.005 118.184 134.461 120.638 135.363 125.508 132.647 131.541 131.444 136.343Z" fill="#1F2D42" transform="matrix(1 0 0 1.00051 604.28 436)"/></g><path d="M114.547 79.4815C123.762 85.3208 130.814 92.9644 133.986 103.566 136.362 111.482 136.517 120.056 134.441 128.049 133.704 130.901 132.628 134.112 130.775 136.44 128.68 139.078 125.566 140.184 122.51 138.671 116.409 135.654 116.341 113.887 116.341 113.887 117.108 121.317 117.554 133.782 118.01 142.201 118.039 142.764 117.593 143.23 117.02 143.21 96.3109 142.696 74.001 143.036 53.2916 143.23 52.7484 143.23 52.3022 142.783 52.3022 142.24 52.3119 131.803 53.0685 119.271 54.2907 109.057 54.3004 108.96 53.214 113.848 53.1849 113.936 52.1664 117.728 50.9345 124.499 48.0342 125.741 44.9108 127.069 35.3564 118.029 33.4164 114.45 32.1457 112.102 32.7956 109.949 33.688 107.67 36.4815 100.589 39.9347 93.7889 43.126 86.8825 45.9196 80.8492 49.1109 73.7779 48.0245 66.9588 47.6462 64.592 56.4344 72.0222 58.6848 73.0698 65.9791 76.4745 74.7188 75.5918 82.5467 75.5918L101.19 75.5918C105.914 75.5918 110.541 76.9304 114.527 79.4621Z" stroke="#231F20" stroke-width="1.23189" stroke-miterlimit="10" fill="none" transform="matrix(1 0 0 1.00051 604.28 436)"/><path d="M117.825 104.74C117.331 101.578 116.846 98.4158 116.351 95.2536" stroke="#231F20" stroke-width="1.23189" stroke-linecap="round" stroke-linejoin="round" fill="#FFFFFF" transform="matrix(1 0 0 1.00051 604.28 436)"/><path d="M94.3903 75.6112C94.3903 75.6112 80.5388 90.6558 68.7436 112.636" stroke="#231F20" stroke-width="1.23189" stroke-linecap="round" stroke-linejoin="round" fill="none" transform="matrix(1 0 0 1.00051 604.28 436)"/><path d="M102.121 75.6015C102.121 75.6015 87.9592 91.7519 76.232 112.636" stroke="#231F20" stroke-width="1.23189" stroke-linecap="round" stroke-linejoin="round" fill="none" transform="matrix(1 0 0 1.00051 604.28 436)"/><path d="M83.1481 89.7149C78.3563 85.1753 74.7285 78.5891 74.7285 78.5891" stroke="#231F20" stroke-width="1.23189" stroke-linecap="round" stroke-linejoin="round" fill="none" transform="matrix(1 0 0 1.00051 604.28 436)"/><path d="M66.1634 78.5891C66.1634 78.5891 71.5178 88.8807 79.0935 95.5252" stroke="#231F20" stroke-width="1.23189" stroke-linecap="round" stroke-linejoin="round" fill="none" transform="matrix(1 0 0 1.00051 604.28 436)"/><path d="M117.913 125.168 53.9221 125.168C53.1073 125.168 52.4574 124.47 52.5156 123.655L53.2043 113.945C53.2528 113.208 53.8736 112.636 54.6108 112.636L116.991 112.636C117.719 112.636 118.33 113.189 118.398 113.916L119.31 123.626C119.387 124.45 118.737 125.168 117.903 125.168Z" fill="#628FA8" transform="matrix(1 0 0 1.00051 604.28 436)"/><g clip-path="url(#clip1)"><path d="M51.662 115.265 122.51 115.265 122.51 117.699 51.662 117.699Z" fill="#8FA8BF" transform="matrix(1 0 0 1.00051 604.28 436)"/><path d="M51.662 119.998 122.51 119.998 122.51 122.433 51.662 122.433Z" fill="#8FA8BF" transform="matrix(1 0 0 1.00051 604.28 436)"/></g><path d="M117.913 125.168 53.9221 125.168C53.1073 125.168 52.4574 124.47 52.5156 123.655L53.2043 113.945C53.2528 113.208 53.8736 112.636 54.6108 112.636L116.991 112.636C117.719 112.636 118.33 113.189 118.398 113.916L119.31 123.626C119.387 124.45 118.737 125.168 117.903 125.168Z" stroke="#231F20" stroke-width="1.23189" stroke-miterlimit="10" fill="none" transform="matrix(1 0 0 1.00051 604.28 436)"/><path d="M130.882 110.318C133.801 115.177 133.714 121.637 130.998 126.565 128.544 130.998 120.803 136.197 115.769 132.375 113.422 130.591 113.218 126.313 112.83 123.665 112.19 119.397 111.268 113.616 112.888 109.474 114.877 104.41 120.6 102.868 125.304 105.138 127.69 106.292 129.562 108.125 130.882 110.327Z" stroke="#231F20" stroke-width="1.23189" stroke-miterlimit="10" fill="#98CAEA" transform="matrix(1 0 0 1.00051 604.28 436)"/><path d="M115.051 57.9961C114.576 54.2422 113.431 50.4204 113.975 46.6083 114.78 41.0211 119.571 41.0502 124.218 42.0881 131.561 43.7177 140.785 44.8332 146.237 38.2857 151.727 31.7092 151.766 22.0092 146.353 15.7721 139.544 7.93457 127.525 7.39137 118.107 9.87456 114.615 10.7961 111.249 12.2025 108.145 14.0649 105.312 15.7624 102.713 18.9537 99.4925 19.817 98.8911 19.9819 98.2509 19.8849 97.6301 19.8073 91.0632 18.9052 84.409 18.7985 77.8131 19.3708 74.195 19.6812 71.9543 20.1177 68.4817 18.847 65.3001 17.683 62.2737 16.1116 59.1989 14.7148 50.0809 10.5633 39.8377 9.61266 30.3609 13.2889 18.6239 17.8382 11.5139 33.8044 22.5621 43.0387 26.5391 46.3658 31.942 47.5007 37.015 47.4231 43.6886 47.3067 53.9318 43.1939 54.9212 53.4274 55.1346 55.6875 54.7466 57.9476 54.3586 60.1786L115.051 58.0058Z" stroke="#231F20" stroke-width="1.23189" stroke-miterlimit="10" fill="#98CAEA" transform="matrix(1 0 0 1.00051 604.28 436)"/><path d="M56.3665 53.9706C59.7324 50.8763 64.2913 49.6832 68.7921 48.6259 75.1747 47.1224 81.7707 46.4822 88.3375 46.6374 95.4088 46.812 103.848 47.4134 109.968 51.2158 117.884 56.1337 118.553 66.9976 113.509 74.1853 108.717 80.9947 100.85 81.9162 93.1002 82.9735 80.8298 84.6612 57.4723 84.894 52.5641 70.412 50.8569 65.3583 51.5068 59.7906 54.9018 55.5323 55.3577 54.96 55.8427 54.4459 56.3568 53.9706Z" stroke="#231F20" stroke-width="1.23189" stroke-linecap="round" stroke-linejoin="round" fill="#FFFFFF" transform="matrix(1 0 0 1.00051 604.28 436)"/><path d="M73.0213 43.6207C72.9728 44.5422 73.6906 45.4443 74.6024 45.5995 74.8643 45.648 75.1359 45.6286 75.3978 45.5801 76.2029 45.4055 76.9207 44.7556 77.0371 43.9408 77.1341 43.3297 76.8722 42.6701 76.3969 42.2724 75.2038 41.283 73.1183 41.9911 73.031 43.6207Z" fill="#231F20" transform="matrix(1 0 0 1.00051 604.28 436)"/><path d="M88.5218 42.7186C88.4733 43.6401 89.1911 44.5422 90.1029 44.6974 90.3648 44.7459 90.6364 44.7265 90.8983 44.678 91.7034 44.5034 92.4212 43.8535 92.5376 43.0387 92.6346 42.4276 92.3727 41.768 91.8974 41.3703 90.7043 40.3809 88.6188 41.089 88.5315 42.7186Z" fill="#231F20" transform="matrix(1 0 0 1.00051 604.28 436)"/><path d="M89.2881 35.8802C88.9195 35.9966 88.5412 36.1712 88.3472 36.5106 88.1532 36.8501 88.2405 37.3545 88.5994 37.5 88.8904 37.6164 89.2105 37.4515 89.5112 37.3545 89.9962 37.1993 90.5297 37.2187 91.005 37.4224 91.2766 37.5388 91.5288 37.7037 91.8004 37.8104 92.072 37.9171 92.4018 37.9559 92.654 37.8104 93.0808 37.5582 93.0808 36.8986 92.8092 36.4718 92.1302 35.4049 90.3163 35.5698 89.2881 35.8899Z" fill="#231F20" transform="matrix(1 0 0 1.00051 604.28 436)"/><path d="M75.6985 36.5106C76.0768 36.5979 76.4648 36.7531 76.6782 37.0635 76.8916 37.3739 76.8528 37.8977 76.5036 38.0723 76.2223 38.2081 75.8925 38.0723 75.5821 37.9947 75.0874 37.8783 74.5539 37.9365 74.098 38.1693 73.8361 38.3051 73.6033 38.4894 73.3317 38.6155 73.0601 38.7416 72.74 38.7998 72.4781 38.6737 72.0319 38.4506 71.9931 37.791 72.2259 37.3545 72.8176 36.2391 74.6412 36.2682 75.6985 36.5106Z" fill="#231F20" transform="matrix(1 0 0 1.00051 604.28 436)"/><path d="M81.6737 48.3058C82.2363 48.5386 82.8959 48.558 83.4973 48.4416 83.8659 48.364 84.2248 48.2379 84.4964 48.0148 85.0686 47.5492 85.1559 46.7926 85.0881 46.1136 85.0492 45.7547 84.9813 45.3958 84.7291 45.1048 84.283 44.5907 83.439 44.5034 82.6922 44.5422 82.1199 44.5713 81.5185 44.678 81.082 44.9981 79.9762 45.8323 80.403 47.782 81.664 48.2961Z" fill="#231F20" transform="matrix(1 0 0 1.00051 604.28 436)"/><path d="M66.2507 125.168 66.2507 140.106" stroke="#231F20" stroke-width="1.23189" stroke-miterlimit="10" fill="none" transform="matrix(1 0 0 1.00051 604.28 436)"/><path d="M54.1646 110.318C54.1646 110.318 55.2995 97.0966 56.0464 92.3436" stroke="#231F20" stroke-width="1.23189" stroke-linecap="round" stroke-linejoin="round" fill="#3C4F70" transform="matrix(1 0 0 1.00051 604.28 436)"/><path d="M85.1171 151.348C85.1171 148.652 84.3217 145.771 80.2478 145.771 77.4154 145.771 80.1217 141.338 78.0168 139.844 72.7497 136.12 65.2322 135.916 59.3735 138.244 53.2819 140.659 47.3164 147.41 49.5862 154.365 50.2749 156.46 52.2246 156.877 54.1937 156.877 58.4617 156.887 62.7296 156.858 66.9976 156.8 71.2656 156.848 75.5336 156.887 79.8016 156.877 81.0141 156.877 82.3139 156.703 83.3518 156.034 84.3896 155.364 84.8844 154.045 85.0395 152.823 85.0977 152.348 85.1365 151.853 85.1365 151.358Z" stroke="#231F20" stroke-width="1.23189" stroke-miterlimit="10" fill="#98CAEA" transform="matrix(1 0 0 1.00051 604.28 436)"/><path d="M83.827 156.877C84.5342 156.877 85.1074 157.451 85.1074 158.158L85.1074 161.087C85.1074 161.794 84.5342 162.368 83.827 162.368L50.1294 162.368C49.4222 162.368 48.849 161.794 48.849 161.087L48.849 158.158C48.849 157.451 49.4222 156.877 50.1294 156.877Z" stroke="#231F20" stroke-width="1.23189" stroke-miterlimit="10" fill="#CE9F73" transform="matrix(1 0 0 1.00051 604.28 436)"/><path d="M69.8203 146.615C69.0831 147.75 68.6466 148.972 68.7921 150.214 68.8697 150.844 69.2868 151.484 69.9076 151.62 70.6157 151.766 71.2753 151.242 71.8088 150.747 72.9631 149.661 74.1077 148.545 75.3978 147.633 76.6879 146.722 78.172 146.004 79.7434 145.829 80.8395 145.713 82.1005 145.79 82.8377 144.966 83.4876 144.238 83.3712 143.055 82.8377 142.24 81.9938 140.94 80.3254 140.358 78.7831 140.485 77.2408 140.611 75.8149 141.338 74.5151 142.182 73.0213 143.162 71.0134 144.762 69.8106 146.625Z" stroke="#231F20" stroke-width="1.23189" stroke-miterlimit="10" fill="#3C4F70" transform="matrix(1 0 0 1.00051 604.28 436)"/><path d="M64.9315 142.822C66.1246 143.695 67.2498 144.656 68.2683 145.606 69.7815 147.013 71.1298 148.642 72.1192 150.456 72.1192 150.456 71.2365 151.639 71.1492 153.298 71.0134 155.84 72.9534 156.877 72.9534 156.877 72.0707 156.877 70.5575 156.713 70.024 156.46 68.6272 155.801 68.4138 153.153 67.5893 151.892 66.2119 149.796 65.0188 148.691 62.9042 147.391 60.324 145.8 57.6566 144.471 54.7078 143.734 52.9133 143.288 51.371 141.658 53.0782 140.019 54.2422 138.903 55.833 138.981 57.3268 139.253 60.0331 139.747 62.6326 141.144 64.9412 142.842Z" stroke="#231F20" stroke-width="1.23189" stroke-miterlimit="10" fill="#3C4F70" transform="matrix(1 0 0 1.00051 604.28 436)"/><path d="M85.1171 151.348C85.1171 148.652 85.9125 145.771 89.9865 145.771 92.8189 145.771 90.1126 141.338 92.2175 139.844 97.4846 136.12 105.002 135.916 110.861 138.244 116.952 140.659 122.918 147.41 120.648 154.365 119.959 156.46 118.01 156.877 116.041 156.877 111.773 156.887 107.505 156.858 103.237 156.8 98.9687 156.848 94.7007 156.887 90.4327 156.877 89.2202 156.877 87.9204 156.703 86.8825 156.034 85.8446 155.364 85.3499 154.045 85.1947 152.823 85.1365 152.348 85.0977 151.853 85.0977 151.358Z" stroke="#231F20" stroke-width="1.23189" stroke-miterlimit="10" fill="#98CAEA" transform="matrix(1 0 0 1.00051 604.28 436)"/><path d="M120.095 156.877C120.802 156.877 121.376 157.451 121.376 158.158L121.376 161.087C121.376 161.794 120.802 162.368 120.095 162.368L86.3975 162.368C85.6904 162.368 85.1171 161.794 85.1171 161.087L85.1171 158.158C85.1171 157.451 85.6904 156.877 86.3975 156.877Z" stroke="#231F20" stroke-width="1.23189" stroke-miterlimit="10" fill="#CE9F73" transform="matrix(-1 -1.22527e-16 1.22465e-16 -1.00051 810.772 755.397)"/><path d="M100.404 146.615C101.141 147.75 101.578 148.972 101.432 150.214 101.355 150.844 100.938 151.484 100.317 151.62 99.6089 151.766 98.9493 151.242 98.4158 150.747 97.2615 149.661 96.1169 148.545 94.8268 147.633 93.5367 146.722 92.0526 146.004 90.4812 145.829 89.3851 145.713 88.1241 145.79 87.3869 144.966 86.737 144.238 86.8534 143.055 87.3869 142.24 88.2308 140.94 89.8992 140.358 91.4415 140.485 92.9838 140.611 94.4097 141.338 95.7095 142.182 97.2033 143.162 99.2112 144.762 100.414 146.625Z" stroke="#231F20" stroke-width="1.23189" stroke-miterlimit="10" fill="#3C4F70" transform="matrix(1 0 0 1.00051 604.28 436)"/><path d="M105.303 142.822C104.11 143.695 102.984 144.656 101.966 145.606 100.453 147.013 99.1045 148.642 98.1151 150.456 98.1151 150.456 98.9978 151.639 99.0851 153.298 99.2209 155.84 97.2809 156.877 97.2809 156.877 98.1636 156.877 99.6768 156.713 100.21 156.46 101.607 155.801 101.82 153.153 102.645 151.892 104.022 149.796 105.215 148.691 107.33 147.391 109.91 145.8 112.578 144.471 115.527 143.734 117.321 143.288 118.863 141.658 117.156 140.019 115.992 138.903 114.401 138.981 112.908 139.253 110.201 139.747 107.602 141.144 105.293 142.842Z" stroke="#231F20" stroke-width="1.23189" stroke-miterlimit="10" fill="#3C4F70" transform="matrix(1 0 0 1.00051 604.28 436)"/><path d="M131.599 111.676C131.599 111.676 136.284 121.657 133.054 132.375" stroke="#231F20" stroke-width="1.23189" stroke-miterlimit="10" fill="none" transform="matrix(1 0 0 1.00051 604.28 436)"/><path d="M72.6333 112.636C72.6333 112.636 79.0935 100.007 91.975 83.1869" stroke="#231F20" stroke-width="1.23189" stroke-linecap="round" stroke-linejoin="round" fill="none" transform="matrix(1 0 0 1.00051 604.28 436)"/><path d="M73.5839 83.3033C73.5839 83.3033 77.2214 89.3172 81.276 92.3436" stroke="#231F20" stroke-width="1.23189" stroke-linecap="round" stroke-linejoin="round" fill="none" transform="matrix(1 0 0 1.00051 604.28 436)"/><path d="M87.5906 83.5458 87.5906 83.5458C84.4866 83.7786 81.373 83.8174 78.2593 83.6815L78.2593 83.6815C78.2593 83.6815 83.1578 89.7052 83.1578 89.7052L87.6003 83.5361Z" stroke="#231F20" stroke-width="1.23189" stroke-linecap="round" stroke-linejoin="round" fill="#98CAEA" transform="matrix(1 0 0 1.00051 604.28 436)"/><path d="M79.1517 52.0694C79.1129 51.8463 79.2778 51.6523 79.5106 51.6232 80.6746 51.4874 81.7901 51.0412 82.7019 50.304 82.8668 50.1682 83.0511 50.013 83.2645 50.013 83.4585 50.013 83.6331 50.1294 83.798 50.2361 84.7001 50.8375 85.7767 51.1479 86.8534 51.1673 87.0765 51.1673 87.2511 51.3516 87.2414 51.565 87.1444 52.8842 86.8922 54.184 86.4848 55.4353 86.1938 56.3471 85.8058 57.2589 85.1171 57.9282 84.4285 58.5975 83.3809 58.9661 82.4885 58.6266 82.0714 58.4714 81.7125 58.1804 81.4118 57.8506 80.015 56.3665 79.4912 54.1064 79.1711 52.05Z" fill="#EA8783" transform="matrix(1 0 0 1.00051 604.28 436)"/><path d="M79.1517 52.0694C79.1129 51.8463 79.2778 51.6523 79.5106 51.6232 80.6746 51.4874 81.7901 51.0412 82.7019 50.304 82.8668 50.1682 83.0511 50.013 83.2645 50.013 83.4585 50.013 83.6331 50.1294 83.798 50.2361 84.7001 50.8375 85.7767 51.1479 86.8534 51.1673 87.0765 51.1673 87.2511 51.3516 87.2414 51.565 87.1444 52.8842 86.8922 54.184 86.4848 55.4353 86.1938 56.3471 85.8058 57.2589 85.1171 57.9282 84.4285 58.5975 83.3809 58.9661 82.4885 58.6266 82.0714 58.4714 81.7125 58.1804 81.4118 57.8506 80.015 56.3665 79.4912 54.1064 79.1711 52.05Z" stroke="#231F20" stroke-width="0.775997" stroke-linecap="round" stroke-linejoin="round" fill="none" transform="matrix(1 0 0 1.00051 604.28 436)"/><path d="M79.1517 52.0694C79.1129 51.8463 79.2778 51.6523 79.5106 51.6232 80.6746 51.4874 81.7901 51.0412 82.7019 50.304 82.8668 50.1682 83.0511 50.013 83.2645 50.013 83.4585 50.013 83.6331 50.1294 83.798 50.2361 84.7001 50.8375 85.7767 51.1479 86.8534 51.1673 87.0765 51.1673 87.2511 51.3516 87.2414 51.565 87.1444 52.8842 86.8922 54.184 86.4848 55.4353 86.1938 56.3471 85.8058 57.2589 85.1171 57.9282 84.4285 58.5975 83.3809 58.9661 82.4885 58.6266 82.0714 58.4714 81.7125 58.1804 81.4118 57.8506 80.015 56.3665 79.4912 54.1064 79.1711 52.05Z" stroke="#231F20" stroke-width="1.23189" stroke-linecap="round" stroke-linejoin="round" fill="none" transform="matrix(1 0 0 1.00051 604.28 436)"/><path d="M76.2514 51.1285C78.3175 52.0791 80.9268 51.7493 82.6922 50.304 82.8571 50.1682 83.0414 50.013 83.2548 50.013 83.4488 50.013 83.6234 50.1294 83.7882 50.2361 85.6312 51.4583 88.192 51.4777 90.0447 50.2846" stroke="#231F20" stroke-width="1.23189" stroke-linecap="round" stroke-linejoin="round" fill="none" transform="matrix(1 0 0 1.00051 604.28 436)"/></g></svg>