<?xml version="1.0" encoding="utf-8"?>
<!-- Generator: Adobe Illustrator 19.2.1, SVG Export Plug-In . SVG Version: 6.00 Build 0)  -->
<svg version="1.1" id="layer" xmlns="http://www.w3.org/2000/svg" xmlns:xlink="http://www.w3.org/1999/xlink" x="0px" y="0px"
	 viewBox="0 0 652 652" style="enable-background:new 0 0 652 652;" xml:space="preserve">
<style type="text/css">
	.st0{fill:#00A9E3;}
	.st1{fill:#FFFFFF;}
	.st2{fill:#003E80;}
</style>
<g>
	<rect x="-64.2" y="416.4" class="st0" width="769.6" height="155.3"/>
	<path class="st1" d="M45.2,470.2c-5.3-2.6-11.5-5.3-20.3-5.3c-6.2,0-11.5,2.6-11.5,9.7c0,14.1,37.9,15.9,37.9,40.6
		c0,15-12.4,22.1-29.1,22.1c-10.6,0-20.3-2.6-22.9-2.6v-14.1c5.3,2.6,13.2,7.9,22.9,7.9c10.6,0,14.1-6.2,14.1-11.5
		c0-17.7-38-18.5-38-41.5c0-14.1,12.4-20.3,27.4-20.3c8.8,0,16.8,1.8,19.4,1.8V470.2z"/>
	<polygon class="st1" points="111.4,499.4 85,456.1 100.8,456.1 118.5,485.2 136.1,456.1 151.1,456.1 124.7,499.4 124.7,536.4 
		111.4,536.4 	"/>
	<path class="st1" d="M233.2,470.2c-5.3-2.6-12.4-5.3-20.3-5.3c-7.1,0-12.4,2.6-12.4,9.7c0,14.1,38,15.9,38,40.6
		c0,15-11.5,22.1-29.1,22.1c-10.6,0-19.4-2.6-22.1-2.6v-14.1c4.4,2.6,12.4,7.9,22.9,7.9c10.6,0,13.2-6.2,13.2-11.5
		c0-17.7-38-18.5-38-41.5c0-14.1,12.4-20.3,27.4-20.3c9.7,0,16.8,1.8,20.3,1.8V470.2z"/>
	<polygon class="st1" points="295,466.7 274.7,466.7 274.7,456.1 328.5,456.1 328.5,466.7 308.2,466.7 308.2,536.4 295,536.4 	"/>
	<polygon class="st1" points="369.1,456.1 415.9,456.1 415.9,466.7 383.3,466.7 383.3,489.6 414.1,489.6 414.1,500.2 383.3,500.2 
		383.3,525.8 416.8,525.8 416.8,536.4 369.1,536.4 	"/>
	<polygon class="st1" points="461.8,456.1 480.3,456.1 502.4,520.5 503.3,520.5 525.3,456.1 543.9,456.1 543.9,536.4 531.5,536.4 
		531.5,473.8 509.5,536.4 496.2,536.4 474.1,473.8 474.1,536.4 461.8,536.4 	"/>
	<path class="st1" d="M635.7,470.2c-5.3-2.6-11.5-5.3-20.3-5.3c-6.2,0-11.5,2.6-11.5,9.7c0,14.1,37.9,15.9,37.9,40.6
		c0,15-12.4,22.1-29.1,22.1c-10.6,0-20.3-2.6-22.1-2.6v-14.1c4.4,2.6,12.4,7.9,22.1,7.9c10.6,0,14.1-6.2,14.1-11.5
		c0-17.7-38-18.5-38-41.5c0-14.1,12.4-20.3,27.4-20.3c8.8,0,16.8,1.8,19.4,1.8V470.2z"/>
	<path class="st2" d="M684.2,296.4c-14.1,16.8-38.8,41.5-63.5,47.7c-19.4,5.3-25.6-15.9-31.8-28.2c22.1-8.8,45-32.7,48.5-38.8
		c1.8-4.4,11.5-26.5-9.7-37.1c-31.8-15.9-113,80.3-113,80.3c1.8-25.6,36.2-68,45.9-84.7c70.6-94.4,60.9-128.8,45.9-131.5
		c-13.2-1.8-28.2,31.8-68.8,110.3c-8.8,16.8-18.5,42.4-30.9,55.6c-41.5,45.9-72.4,75-84.7,71.5c-6.2-1.8-0.9-16.8,5.3-29.1
		c7.9-15.9,23-32.7,25.6-41.5c3.5-8.8-5.3-19.4-10.6-25.6c-6.2-7.1-20.3-1.8-28.2-1.8c-0.9-5.3,6.2-13.2,1.8-13.2
		c0,0-14.1-0.9-34.4,23c-7.9,8.8-9.7,15-8.8,19.4c-14.1,15.9-60,70.6-77.7,69.7c-12.4,0,7.1-37.1,11.5-45.9
		c7.1-12.4,20.3-31.8,23-43.2c1.8-8.8-6.2-12.4-10.6-13.2c-4.4-0.9-11.5,0-15.9,3.5c-3.5,3.5-12.4,11.5-16.8,18.5
		c0,0-0.9-30.9-31.8-22.9c-27.4,7.1-44.1,20.3-63.5,35.3c-25.6,20.3-56.5,59.1-37.9,87.4c12.4,18.5,38.8,7.1,49.4,1.8
		c19.4-10.6,47.7-32.7,64.4-53.8c-10.6,15.9-18.5,54.7,6.2,61.8c25.6,7.1,60.9-30.9,75-45.9c11.5-12.4,33.5-37.1,41.5-45
		c7.1,0,20.3-7.1,27.4-9.7c-6.2,9.7-17.7,29.1-21.2,37.9c-10.6,20.3-19.4,52.1,3.5,61.8c19.4,7.9,52.1-11.5,102.4-71.5
		c-18.5,31.8-23.8,54.7-12.4,65.3c15,7.1,35.3-26.5,49.4-44.1c8.8-10.6,30.9-34.4,43.2-43.2c10.6-7.1,22.1-8.8,22.1-0.9
		c0.9,10.6-29.1,27.4-32.6,29.1c-3.5,2.6-16.8,9.7-11.5,22.1c4.4,10.6,16.8,36.2,34.4,43.2c22.9,7.9,60.9-28.2,72.4-42.4
		c12.4-14.1,17.6-23.8,20.3-29.1C689.5,294.6,688.6,291.1,684.2,296.4 M182,341.4c-7.9-7.9,3.5-30,27.4-46.8
		c31.8-21.2,67.1-18.5,67.1-18.5C257.1,309.6,191.7,351.1,182,341.4"/>
	<path class="st2" d="M32.9,96.9h0.9H32.9z"/>
	<path class="st2" d="M186.5,239.9c81.2-19.4,103.3-77.7,79.4-120.9c-13.2-25.6-58.2-51.2-132.4-46.8c-43.2,2.6-72.4,12.4-99.7,24.7
		c-41.5,19.4-69.7,50.3-69.7,81.2c0,12.4,2.6,23.8,7.9,31.8c4.4,5.3,5.3,5.3,5.3,4.4s-1.8-2.6-1.8-3.5c-2.6-4.4-12.4-29.1,7.1-58.2
		c9.7-15,29.1-27.4,39.7-33.5C98.2,81,165.3,93.4,175,96c23.8,4.4,62.7,18.5,54.7,60c-13.2,69.7-135.9,76.8-160.6,77.7
		c15-30,28.2-54.7,29.1-56.5c2.6-4.4,13.2-14.1,13.2-20.3c0-5.3-12.4-36.2-22.9-34.4c-9.7,1.8-11.5,20.3-11.5,23.8
		c0,0-74.1,143-90.9,173.9c-15.9,30-2.6,37.9,0,41.5c3.5,4.4,16.8,16.8,26.5,0c4.4-7.9,0-10.6,6.2-26.5c2.6-7.9,22.9-48.5,42.4-86.5
		C85,251.4,128.2,253.1,186.5,239.9"/>
</g>
</svg>
