<svg width="316" height="252" xmlns="http://www.w3.org/2000/svg" xmlns:xlink="http://www.w3.org/1999/xlink" xml:space="preserve" overflow="hidden"><defs><clipPath id="clip0"><rect x="482" y="170" width="316" height="252"/></clipPath><clipPath id="clip1"><path d="M652.417 265.667C654.867 299.333 626.469 302.889 626.135 266.889 627.805 267.222 629.587 267.111 631.258 266.667 634.376 265.889 637.16 264.111 638.942 261.556 641.058 263.778 643.842 265.444 646.849 266 648.742 266.444 650.635 266.333 652.417 265.667Z"/></clipPath><clipPath id="clip2"><path d="M656.165 364.729 685.133 358.555 689.181 377.461 660.213 383.635Z"/></clipPath><clipPath id="clip3"><path d="M653.252 358.649 685.161 351.848 691.978 383.684 660.069 390.485Z"/></clipPath><clipPath id="clip4"><path d="M653.252 358.649 685.161 351.848 691.978 383.684 660.069 390.485Z"/></clipPath><clipPath id="clip5"><path d="M653.252 358.649 685.161 351.848 691.978 383.684 660.069 390.485Z"/></clipPath></defs><g clip-path="url(#clip0)" transform="translate(-482 -170)"><path d="M266.667 150.333C269.222 150.222 269.444 152.889 269 154.889 265.111 170.444 253.222 182.667 241.667 193.111 213.444 218.556 175.889 223.333 139 224 127.667 224.222 116.222 223.889 104.889 223.333 94 222.778 82.2222 223.111 71.4445 220.889 56 217.778 48.7778 201.778 52.8889 187.222 57.7778 169.889 76.7778 153.222 94.5556 150.667 99 150 107.444 153.778 111.778 154.889 125.667 158.333 140.333 159.556 154.444 157.222 168.556 154.889 180.889 147.111 193 139.556 200.111 135.111 206.889 130 213.222 124.556 216.222 122 219.222 119 222.222 116.222 224.444 114.111 228 109.222 231.556 111.444 234.333 113.111 235.889 116.667 237.556 119.333 240 123.444 242 127.778 244.333 131.889 248.889 139.778 257.667 148.667 266.667 150.333Z" stroke="#000000" stroke-width="2.28244" stroke-miterlimit="10" fill="#FFFFFF" transform="matrix(1.00229 0 0 1 482.139 170)"/><path d="M71.2222 183.889C69.1111 185.556 67.1111 187.556 65.3333 189.889 56.1111 201.889 56.6667 223.222 72.3333 230 75.8889 231.556 79.8889 232 83.7778 232 92.1111 232 100.556 230.222 108.222 226.778 111.222 225.444 114.111 223.778 116.333 221.444 121.556 216.111 122.556 207.778 120.556 200.667 114 178.444 88.2222 170.667 71.2222 183.889Z" stroke="#000000" stroke-width="2.28244" stroke-miterlimit="10" fill="#98CAEA" transform="matrix(1.00229 0 0 1 482.139 170)"/><path d="M159.222 184.889C160.333 197.111 160.222 210.889 159.556 223.111 159.556 222.667 159.556 222.222 159.556 221.889" stroke="#000000" stroke-width="2.28244" stroke-miterlimit="10" fill="none" transform="matrix(1.00229 0 0 1 482.139 170)"/><path d="M204.889 106.889C204.111 103.444 202.667 99.3333 205.222 96.8889 207 95.1111 210 95.4445 212.444 95.6667 222 96.7778 232.111 96.4445 241 92.6667 249.889 88.8889 257.556 81.3333 259.444 71.7778 260.222 67.8889 260.111 63.8889 259.222 60 257.222 50 251 41 242.444 35.5556 233.889 30 223.111 28.1111 213.222 30.4444 200.111 33.4444 185.778 44 173.333 49.1111 155.444 45 136.556 45.3333 118.889 50.2222 112.778 48.1111 102.333 46.4444 96.1111 45 81.4445 41.6667 66 40.2222 51.6667 44.5556 37.3333 48.8889 24.3333 59.5556 20.4444 74 19.1111 78.8889 18.8889 83.8889 19.3333 88.8889 19.6667 92.2222 20.3333 95.5556 21.6667 98.6667 25 106 32.2222 111 40.1111 112.778 47.8889 114.667 56.1111 113.667 63.8889 111.444 67.1111 110.556 70.4445 109.333 73.8889 109.444 82.4444 109.778 89 119.667 86.1111 127.667L204.889 106.889Z" stroke="#000000" stroke-width="2.28244" stroke-miterlimit="10" fill="#98CAEA" transform="matrix(1.00229 0 0 1 482.139 170)"/><path d="M118.556 90.3333C115.222 91.5556 112.111 93 109 94.6667 94.6667 102.556 81.5556 116.889 83 134.222 83.8889 144.444 90 154.556 98.5556 160.444 101.333 162.333 104.556 163.667 107.778 164.778 123.444 170.111 140.333 170.778 156.667 168.667 171.444 166.778 188.444 164.222 199.222 153.222 209.778 142.222 212.889 126.222 207 112.111 204.556 106.222 200.667 101 195.778 96.8889 187.333 89.7778 176.556 86.1111 165.667 85.2222 150.333 83.7778 133.444 84.7778 118.556 90.3333Z" stroke="#000000" stroke-width="2.28244" stroke-miterlimit="10" fill="#FFFFFF" transform="matrix(1.00229 0 0 1 482.139 170)"/><path d="M151 84.1111C150.222 86.6667 151.556 89.6667 154.111 90.5556 154.778 90.7778 155.556 90.8889 156.333 90.7778 157.222 90.7778 158 90.5556 158.778 90.2222 161 89.2222 162.333 86.6667 161.778 84.2222 160.444 78.5556 152.667 78.7778 151 84.1111Z" transform="matrix(1.00229 0 0 1 482.139 170)"/><path d="M134.111 80.3333C134.333 81 134.667 81.7778 135.222 82.2222 136.111 82.7778 137.222 82.7778 138.222 82.4444 139.111 82.1111 139.889 81.6667 140.333 80.8889 140.667 80.2222 140.778 79.3333 140.667 78.5556 140.556 77.5556 140.111 76.5556 139.333 76 136.556 73.8889 133.333 77.3333 134.111 80.3333Z" transform="matrix(1.00229 0 0 1 482.139 170)"/><path d="M134.111 80.3333C134.333 81 134.667 81.7778 135.222 82.2222 136.111 82.7778 137.222 82.7778 138.222 82.4444 139.111 82.1111 139.889 81.6667 140.333 80.8889 140.667 80.2222 140.778 79.3333 140.667 78.5556 140.556 77.5556 140.111 76.5556 139.333 76 136.556 73.8889 133.333 77.3333 134.111 80.3333Z" transform="matrix(1.00229 0 0 1 482.139 170)"/><path d="M169.889 95.6667C172.333 129.333 144 132.889 143.667 96.8889 145.333 97.2222 147.111 97.1111 148.778 96.6667 151.889 95.8889 154.667 94.1111 156.444 91.5556 158.556 93.7778 161.333 95.4445 164.333 96 166.222 96.4445 168.111 96.3333 169.889 95.6667Z" fill="#EA8783" transform="matrix(1.00229 0 0 1 482.139 170)"/><g clip-path="url(#clip1)"><path d="M148.111 94.3333C148.111 94.3333 169.778 100 171.222 112.778L171.222 91.5556 154.556 86 148.111 94.3333Z" fill="#B84C4C" transform="matrix(1.00229 0 0 1 482.139 170)"/></g><path d="M172.889 80.3333C172.667 81 172.333 81.7778 171.778 82.2222 170.889 82.7778 169.778 82.7778 168.778 82.4444 167.889 82.1111 167.111 81.6667 166.667 80.8889 166.333 80.2222 166.222 79.3333 166.333 78.5556 166.444 77.5556 166.889 76.5556 167.667 76 170.444 73.8889 173.667 77.3333 172.889 80.3333Z" transform="matrix(1.00229 0 0 1 482.139 170)"/><path d="M139.667 95.5556C142.444 97 145.778 97.4444 148.778 96.7778 151.889 96 154.667 94.2222 156.444 91.6667 158.556 93.8889 161.333 95.5556 164.333 96.1111 167.333 96.6667 170.667 96 173 94" stroke="#000000" stroke-width="2.28244" stroke-linecap="round" stroke-linejoin="round" stroke-miterlimit="10" fill="none" transform="matrix(1.00229 0 0 1 482.139 170)"/><path d="M143.667 96.8889C144 132.889 172.333 129.333 169.889 95.6667" stroke="#000000" stroke-width="2.28244" stroke-linecap="round" stroke-linejoin="round" stroke-miterlimit="10" fill="none" transform="matrix(1.00229 0 0 1 482.139 170)"/><path d="M132 62.1111C131.667 62.4444 131.333 62.8889 131.333 63.4444 131.444 64.1111 132.333 64.5556 133 64.3333 133.667 64.1111 134.222 63.6667 134.778 63.2222 135.444 62.7778 136.222 62.3333 137.111 62.2222 137.667 62.1111 138.333 62.1111 138.889 62 139.444 61.8889 140.111 61.4444 140.222 60.8889 140.556 59 137.333 59.6667 136.556 59.8889 134.889 60 133.222 60.8889 132 62.1111Z" transform="matrix(1.00229 0 0 1 482.139 170)"/><path d="M164.222 58.8889C163.889 59 163.556 59 163.222 59.2222 162.889 59.4444 162.778 59.7778 162.778 60.1111 162.889 60.5556 163.222 60.7778 163.667 60.8889 164.667 61.1111 165.778 60.6667 166.667 61.1111 167.222 61.3333 167.556 61.6667 168 62 168.444 62.2222 168.889 62.4444 169.333 62.4444 169.444 62.4444 169.556 62.4444 169.667 62.4444 169.889 62.3333 170.111 62 170.111 61.7778 170.222 60.8889 169.778 60 169 59.5556 167.889 58.5556 165.778 58.5556 164.222 58.8889Z" transform="matrix(1.00229 0 0 1 482.139 170)"/><path d="M258.667 84.1111C261.222 83.7778 263.778 83.7778 266.444 84.3333 273.556 86 278 92.1111 281.111 98.3333 285 106.111 285.333 115.222 284.778 124 284.444 129.556 283.778 135.222 281.667 140.333 279.556 145.444 274.111 150.778 269.333 153.667 261.222 158.778 250 157.556 242.111 152.111 234.222 146.667 229.333 137.444 227.556 128 226.556 123 226.444 117.778 226.333 112.667 226.222 108.111 225.444 103.444 227 99 229.556 91.8889 237.222 87.3333 244.333 86.1111 247.222 85.5556 250.222 85.5556 253.222 85 255.111 84.6667 256.889 84.3333 258.667 84.1111Z" stroke="#000000" stroke-width="2.28244" stroke-miterlimit="10" fill="#98CAEA" transform="matrix(1.00229 0 0 1 482.139 170)"/><g clip-path="url(#clip2)"><g clip-path="url(#clip3)"><path d="M203.556 197.333C203.111 198.111 202.444 199.222 201.556 199.667 200.889 200 200.444 199.222 200.111 198.889 200.889 198.444 201.556 197.333 201.667 197.111 201.667 196.889 201.889 196 201 195.778 199.667 195.444 197.444 199.667 197.444 199.667 197.333 198.667 198.222 196.778 198.444 196.111 200.333 192 199.667 190.778 199.111 190.889 198.667 190.889 198.333 192.333 197.444 195.556 197.222 196.222 197.111 197.222 196.778 197.889 195.556 200 194.667 201.222 194.222 201.222 194 201.222 194 200.556 194.222 200.111 194.444 199.444 194.778 198.667 194.889 198.333 194.889 198 194.556 197.667 194.222 197.444 194 197.222 193.444 197.556 193.111 197.556 193.111 197.333 193.222 197 193.111 197.111 193.111 197.111 192.556 197.222 192 198.222 191.778 198.667 191.778 198.889 191.889 199 191.889 199 191.889 199 191.889 199 191.444 199.667 190.222 202.111 189.556 202.222 189.111 202.333 189.556 200.778 189.667 200.444 189.778 199.889 190.111 199.111 190.111 198.667 190.111 198.333 189.778 198.222 189.556 198.222 189.333 198.222 189.111 198.333 189 198.444 188.889 198.667 188.667 199 188.556 199.333 188.556 199.333 188.333 198.222 187.222 198.667 186.222 199.111 185.778 199.778 185.111 200.556 184.333 201.556 183.444 203.222 184.444 204.111 185 204.667 186 204 186.333 203.778 187 203.222 187.889 202.111 188.333 201.222 188.111 201.889 188.111 203.444 189.111 203.444 190.111 203.444 191.111 201.778 191.556 201.111 191.889 200.556 192.556 199.444 192.778 199.111 193.111 199.111 193.444 198.667 193.778 198.556 193.556 199 193.333 199.778 193.222 200.111 193 201 192.889 202.222 193.889 202.444 194.667 202.556 195.778 201.667 197.111 198.889 196.667 200.222 196.667 201.111 197.222 201.444 197.778 201.556 198.333 200.222 198.667 199.444 198.889 199 199.556 197.889 200 197.444 200.333 197.111 200.778 196.889 200.889 197.222 201 197.556 200 198.444 199.889 198.556 199.778 198.667 199.333 199.111 199.556 199.444 199.778 199.778 200.444 200.667 201.222 200.778 202.111 200.889 203.222 199.222 203.556 198.556 203.889 197.889 204 197.556 204.111 197.333 203.778 197.222 203.667 197.111 203.556 197.333M185.111 203.111C184.778 202.889 185 202 185.778 201.111 186.778 200 188.111 199.889 188.111 199.889 187.667 201.333 185.556 203.333 185.111 203.111" fill="#213C7A" transform="matrix(1.00229 0 0 1 482.139 170)"/></g><g clip-path="url(#clip4)"><path d="M184.444 199.222C187.333 197.889 187.667 195.444 186.444 194.111 185.667 193.222 183.889 192.667 181.111 193.444 179.444 193.889 178.444 194.444 177.556 195.222 176.222 196.222 175.333 197.667 175.667 198.778 175.778 199.222 176 199.667 176.222 199.889 176.444 200.111 176.444 200 176.444 200 176.444 200 176.333 199.889 176.333 199.889 176.222 199.778 175.667 198.889 176.111 197.667 176.333 197 177 196.333 177.333 196.111 179.889 194.111 182.444 194 182.889 194 183.778 194 185.333 194.222 185.444 195.778 185.556 198.556 181 199.778 180 200 180.333 198.778 180.667 197.667 180.667 197.556 180.667 197.333 181 197 181 196.778 181 196.556 180.222 195.556 179.889 195.667 179.556 195.778 179.556 196.556 179.667 196.667 179.667 196.667 178 202.667 177.667 203.889 177.333 205.111 177.889 205.333 178 205.444 178.111 205.556 178.778 205.889 179 205.222 179.111 204.889 178.889 204.778 179 204.222 179 203.889 179.444 202.222 179.889 200.667 180.778 200.444 182.333 200.222 184.444 199.222" fill="#213C7A" transform="matrix(1.00229 0 0 1 482.139 170)"/></g><g clip-path="url(#clip5)"><path d="M177.667 213.667 206.556 207.556 205.333 201.778 176.444 207.889 177.667 213.667ZM180.667 211.778C180.333 211.889 179.889 211.778 179.778 211.778L179.667 211.222C179.889 211.333 180.222 211.444 180.556 211.333 181 211.222 181 211 181 210.778 180.889 210.111 179.444 210.444 179.222 209.556 179.111 209 179.556 208.667 180.111 208.556 180.444 208.444 180.778 208.444 180.889 208.444L181 208.889C180.778 208.889 180.556 208.778 180.222 208.889 180 208.889 179.778 209.111 179.889 209.333 180 209.889 181.444 209.667 181.667 210.556 181.667 211.222 181.333 211.667 180.667 211.778M184.222 209.444 184.556 210.889 184 211 183.667 209.556 182.333 208.111 182.889 208 183.778 208.889 184.222 207.667 184.778 207.556 184.222 209.444ZM187.667 210.222C187.333 210.333 186.889 210.222 186.778 210.222L186.667 209.667C186.889 209.778 187.222 209.889 187.556 209.778 188 209.667 188 209.444 188 209.222 187.889 208.556 186.444 208.889 186.222 208 186.111 207.444 186.556 207.111 187.111 207 187.444 206.889 187.778 206.889 187.889 206.889L188 207.333C187.778 207.333 187.556 207.222 187.222 207.333 187 207.333 186.778 207.556 186.889 207.778 187 208.333 188.444 208.111 188.667 209 188.778 209.667 188.333 210.111 187.667 210.222M191.556 206.667 190.778 206.778 191.333 209.444 190.778 209.556 190.222 206.889 189.444 207 189.333 206.667 191.333 206.222 191.556 206.667ZM195.444 208.556 193.667 208.889 193 205.889 194.778 205.556 194.889 205.889 193.667 206.111 193.889 207 195.111 206.778 195.222 207.111 194 207.333 194.222 208.333 195.556 208.111 195.444 208.556ZM200.222 207.556 199.778 207.667 199.222 205.333 199.222 205.333 198.889 207.778 198.444 207.889 197.111 205.667 197.111 205.667 197.667 208 197.222 208.111 196.556 205.111 197.222 205 198.556 207.222 198.556 207.222 198.889 204.667 199.556 204.556 200.222 207.556ZM202.778 207C202.444 207.111 202 207 201.889 207L201.778 206.444C202 206.556 202.333 206.667 202.667 206.556 203.111 206.444 203.111 206.222 203.111 206 203 205.333 201.556 205.667 201.333 204.778 201.222 204.222 201.667 203.889 202.222 203.778 202.556 203.667 202.889 203.667 203 203.667L203.111 204.111C202.889 204.111 202.667 204 202.333 204.111 202.111 204.111 201.889 204.333 202 204.556 202.111 205.111 203.556 204.889 203.778 205.778 203.889 206.444 203.444 206.889 202.778 207" fill="#00A8E2" transform="matrix(1.00229 0 0 1 482.139 170)"/></g></g><path d="M127.222 161.556C123.778 161.889 120 163.333 118.889 166.556 117.667 170.444 121.222 174.222 122.111 178.222 122.667 180.556 122.222 183 122.111 185.444 122 187.889 122.444 190.444 124.111 192.111 125.556 193.556 127.667 194 129.667 194.111 137 194.556 143.889 190.778 149.444 186 151 184.667 152.556 183.111 153.222 181.222 153.889 179.333 153.778 177.222 153.444 175.222 151.778 164.556 136.444 160.667 127.222 161.556Z" stroke="#000000" stroke-width="2.28244" stroke-miterlimit="10" fill="#E43D30" transform="matrix(1.00229 0 0 1 482.139 170)"/><path d="M153.444 175.333C150.556 175.556 148.222 176.667 145.444 176.889 143.333 177 140.889 176.111 138.778 176.444" stroke="#000000" stroke-width="2.28244" stroke-linecap="round" stroke-linejoin="round" stroke-miterlimit="10" fill="none" transform="matrix(1.00229 0 0 1 482.139 170)"/><path d="M183 157.111C184.333 157 185.667 157 186.889 157.444 189.889 158.333 191.889 161.333 192.444 164.444 193 167.556 192.444 170.667 191.778 173.667 191.333 175.778 190.778 177.889 190.556 180 190.333 182.111 191.111 184.333 190.222 186.333 189.667 187.667 188.333 188.556 187 189.111 184.222 190.111 180.778 190.222 177.889 189.889 173.556 189.333 169 187.778 166.333 184.333 166.111 184 165.778 183.667 165.778 183.222 165.778 182.667 162.889 183.222 163.222 182.889 166.111 179.222 166.444 173.889 164.667 169.667 163.778 167.778 165.333 165.111 167.111 163.222 168.889 161.333 171.889 160 174.222 159.111 176.889 158.111 179.889 157.333 183 157.111Z" stroke="#000000" stroke-width="2.28244" stroke-miterlimit="10" fill="#E43D30" transform="matrix(1.00229 0 0 1 482.139 170)"/><path d="M168.889 175C172.222 175 175.333 174.222 178.556 175" stroke="#000000" stroke-width="2.28244" stroke-linecap="round" stroke-miterlimit="10" fill="none" transform="matrix(1.00229 0 0 1 482.139 170)"/><path d="M155.333 166.667C157.333 166.778 159.333 166.556 161.222 166.111 162.889 165.778 164.778 165.222 166.222 166.111 167.444 166.889 167.889 168.333 168.111 169.778 168.444 172.556 168 175.333 167.444 178.111 167.111 179.889 166.778 181.778 165.444 183 164.111 184.333 162.111 184.667 160.111 184.889 158.111 185.111 156.111 185.111 154.111 185.111 153.556 185.111 152.778 185 152.444 184.556 152.111 184 152.333 183.333 152.556 182.778 153.667 179.333 153.444 175.444 151.889 172.222 151.333 171 149.778 169.444 150.444 168 151.222 166.111 153.778 166.556 155.333 166.667Z" stroke="#000000" stroke-width="2.28244" stroke-miterlimit="10" fill="#E43D30" transform="matrix(1.00229 0 0 1 482.139 170)"/><path d="M250.556 29.2222C248.556 29.4444 247.222 31.3333 247.556 33.2222L249.778 45.7778C250 46.8889 249.222 47.8889 248.222 48.1111L248.222 48.1111C247.111 48.3333 246.111 47.5556 245.889 46.5556L243.667 34.1111C243.333 32.2222 241.667 30.8889 239.778 31.1111 237.778 31.3333 236.444 33.2222 236.778 35.1111L239 47.6667C239.222 48.7778 238.444 49.7778 237.444 50 236.333 50.2222 235.333 49.4444 235.111 48.4444L232.889 36C232.556 34.1111 230.889 32.7778 229 33 227 33.2222 225.667 35.1111 226 37L228.667 51.5556 229.556 56.3333C230.111 59.4444 233 61.4444 236.111 60.8889L239.444 60.3333 245.889 95.8889C246.333 98.1111 248.444 99.6667 250.778 99.2222L253 98.7778C255.222 98.3333 256.778 96.2222 256.333 93.8889L249.889 58.3333 253.222 57.7778C256.333 57.2222 258.333 54.3333 257.778 51.2222L256.889 46.4444 254.444 32.2222C254.111 30.4444 252.444 29 250.556 29.2222Z" stroke="#000000" stroke-width="2.28244" stroke-miterlimit="10" fill="#C2C1C0" transform="matrix(1.00229 0 0 1 482.139 170)"/><path d="M259.222 84C250.111 84.7778 241.889 89.7778 240.444 98.7778 240 101.667 240.556 104.889 242.667 107.111 245.889 110.333 243.111 115.778 244.111 119.778 244.889 122.667 248.222 124.889 248.333 127.556 248.444 130.667 247.111 133.333 247.556 136.556 248.111 140.111 250.111 143.556 253.444 145" stroke="#000000" stroke-width="2.28244" stroke-miterlimit="10" fill="#98CAEA" transform="matrix(1.00229 0 0 1 482.139 170)"/><path d="M136.778 77.1111C136.667 78 137.778 78.7778 138.556 78.7778 139.333 78.7778 139.778 78 139.556 77.3333 139.333 76.4445 138.222 76 137.333 76.3333 137.111 76.3333 136.889 76.6667 136.778 77.1111Z" fill="#FFFFFF" transform="matrix(1.00229 0 0 1 482.139 170)"/><path d="M135.556 81.2222C136.111 81.6667 137 81.2222 136.889 80.4445 136.778 80.1111 136.333 79.7778 136 79.8889 135.556 80 135.222 80.4445 135.444 80.8889" fill="#FFFFFF" transform="matrix(1.00229 0 0 1 482.139 170)"/><path d="M168.333 77.4444C168.556 78.3333 169.778 78.6667 170.556 78.4444 171.333 78.2222 171.444 77.3333 171 76.6667 170.444 75.8889 169.333 75.8889 168.556 76.4445 168.333 76.6667 168.222 77.1111 168.333 77.4444Z" fill="#FFFFFF" transform="matrix(1.00229 0 0 1 482.139 170)"/><path d="M168.444 81.7778C169.111 82.1111 169.778 81.2222 169.444 80.6667 169.222 80.3333 168.778 80.2222 168.444 80.4445 168 80.6667 167.889 81.2222 168.222 81.5556" fill="#FFFFFF" transform="matrix(1.00229 0 0 1 482.139 170)"/></g></svg>